<svg width="141" height="137" viewBox="0 0 141 137" fill="none" xmlns="http://www.w3.org/2000/svg">
<path d="M118.999 101.81C118.464 101.27 117.936 100.723 117.415 100.17C114.712 97.2876 111.783 94.5666 108.957 91.9301L107.193 90.2866C103.568 86.8911 100.131 84.9724 96.68 84.4177C92.0246 83.6694 87.5743 85.4887 83.4422 89.8134C81.6147 91.7328 79.6455 92.492 77.4307 92.136C75.8984 91.8443 74.4458 91.2376 73.1726 90.3574C60.9778 82.5367 53.0126 72.2678 49.5133 59.8421C47.8209 53.8331 49.2487 50.3163 54.2822 48.0715C57.1447 46.8006 62.4616 44.4344 63.0968 38.3607C63.8052 31.4704 51.4175 8.39244 45.1794 4.99732C42.5121 3.55096 39.4141 3.04424 36.4245 3.56537C28.4323 4.79681 22.2927 8.23628 18.6481 13.4925C15.1276 18.5769 14.2137 25.0633 15.9812 32.2465C21.106 53.0196 29.9749 71.8413 42.3508 88.1851C54.4605 104.183 70.2507 118.226 89.2741 129.932C90.9904 130.987 92.8497 131.713 94.213 132.241C94.6734 132.42 95.0729 132.577 95.3615 132.704C95.5199 132.774 95.6873 132.824 95.8591 132.852L96.0222 132.878C105.609 134.419 118.474 127.857 123.548 118.836C127.998 110.934 123.006 105.872 118.999 101.81Z" fill="#FFF9E6"/>
</svg>
