<svg width="301" height="273" viewBox="0 0 301 273" fill="none" xmlns="http://www.w3.org/2000/svg">
<circle cx="136.5" cy="136.5" r="136.5" fill="white"/>
<path d="M209.589 61.4674C217.607 58.3299 226.038 63.0653 224.945 70.0928L202.49 214.486C201.372 221.673 191.178 225.848 184.25 221.956L41.9471 142.028C35.0188 138.137 36.6305 129.141 44.8309 125.932L209.589 61.4674Z" fill="#24A1DE"/>
<path d="M106.952 212.327C101.868 217.4 93.1931 213.723 93.302 206.542L93.8468 170.614C93.9329 164.938 99.7399 161.155 104.967 163.37L129.858 173.917C135.085 176.132 136.406 182.936 132.387 186.946L106.952 212.327Z" fill="#24A1DE"/>
<path d="M184 96L78 165L91.5 172.5L127 150L184 96Z" fill="white"/>
</svg>
