<svg width="273" height="273" viewBox="0 0 273 273" fill="none" xmlns="http://www.w3.org/2000/svg">
<circle cx="136.5" cy="136.5" r="136.5" fill="#FEEEBE"/>
<rect x="30" y="50" width="213" height="165" rx="70" fill="#504C4C"/>
<path d="M179.067 122.768C178.778 105.118 162.726 89.3342 143.287 87.5805C142.868 87.54 142.449 87.4894 142.031 87.4288C141.052 87.2779 140.062 87.2006 139.07 87.1977C135.093 87.2974 134.099 90.0087 133.86 91.6083C133.628 93.1771 133.916 94.4663 134.726 95.4758C136.084 97.1575 138.41 97.4044 140.278 97.6019C140.819 97.6616 141.336 97.7158 141.77 97.7965C159.283 101.1 165.294 106.83 168.574 123.348C168.654 123.749 168.699 124.249 168.75 124.779C168.927 126.759 169.284 130.877 173.903 130.761C174.288 130.752 174.698 130.711 175.133 130.639C179.411 129.903 179.184 126.135 179.075 124.325C179.043 123.813 179.012 123.331 179.054 123.006L179.061 122.762L179.067 122.768Z" fill="#FEEEBE"/>
<path d="M137.789 81.2402C138.315 81.2596 138.786 81.2905 139.203 81.333C167.915 84.8448 181.397 97.5302 185.731 125.129C185.807 125.597 185.834 126.17 185.855 126.774C185.948 128.939 186.137 133.44 191.17 133.406L191.323 133.402C192.907 133.362 194.14 132.878 195.024 131.948C196.547 130.341 196.387 128.006 196.245 126.129C196.212 125.662 196.189 125.235 196.175 124.849C195.834 96.5274 169.665 71.4847 140.19 71.2707C140.063 71.2739 139.945 71.283 139.835 71.2979L139.486 71.325C139.181 71.3286 138.833 71.321 138.443 71.3023C137.985 71.2832 137.456 71.2598 136.916 71.2734C132.228 71.3908 131.419 74.6165 131.353 76.5292C131.203 80.9473 135.651 81.1473 137.789 81.2402ZM185.249 160.95C184.624 160.517 184.005 160.077 183.392 159.629C180.206 157.291 176.828 155.153 173.566 153.08L171.531 151.787C167.345 149.114 163.614 147.858 160.12 147.946C155.406 148.064 151.365 150.668 148.096 155.678C146.651 157.9 144.855 159.007 142.612 159.063C141.052 159.057 139.513 158.727 138.1 158.095C124.678 152.644 114.965 144.01 109.246 132.436C106.481 126.84 107.239 123.121 111.776 119.991C114.357 118.216 119.15 114.915 118.66 108.828C118.093 101.925 101.683 81.5098 94.9285 79.3162C92.0412 78.3835 88.9028 78.4535 86.0595 79.514C78.4286 82.1901 73.0238 86.6971 70.4049 92.5325C67.8765 98.1764 68.1675 104.72 71.2223 111.458C80.0694 130.939 92.2394 147.815 107.403 161.612C122.241 175.118 140.338 186.027 161.186 194.047C163.066 194.769 165.027 195.141 166.464 195.41C166.95 195.502 167.371 195.583 167.678 195.655C167.847 195.695 168.02 195.714 168.194 195.709L168.359 195.705C178.066 195.462 189.51 186.651 192.844 176.854C195.769 168.27 189.933 164.209 185.249 160.95ZM142.647 103.63C140.99 103.708 137.53 103.88 136.401 107.291C135.869 108.892 135.971 110.251 136.707 111.368C137.777 112.989 139.766 113.453 141.564 113.688C148.101 114.526 151.535 117.896 152.363 124.304C152.75 127.286 154.905 129.326 157.592 129.259C157.796 129.251 157.999 129.234 158.201 129.207C161.432 128.76 162.943 126.432 162.7 122.293C162.642 117.971 160.169 113.125 156.063 109.32C151.95 105.503 147.053 103.416 142.647 103.63Z" fill="#FEEEBE"/>
<path d="M81.3172 235.891C76.1166 240.116 68.3436 237.471 69.051 231.718L72.8704 200.654C73.4323 196.084 79.21 192.833 83.9209 194.436L108.181 202.69C112.892 204.293 113.527 209.726 109.397 213.082L81.3172 235.891Z" fill="#504C4C"/>
</svg>
